<mxfile host="app.diagrams.net" modified="2021-09-06T11:26:58.584Z" agent="5.0 (Windows NT 10.0; Win64; x64) AppleWebKit/537.36 (KHTML, like Gecko) Chrome/91.0.4472.124 Safari/537.36" etag="a-Pkx0Er_AtDnnf89uhc" version="15.0.6" type="github" pages="2">
  <diagram id="prtHgNgQTEPvFCAcTncT" name="Page-1">
    <mxGraphModel dx="2287" dy="793" grid="1" gridSize="10" guides="1" tooltips="1" connect="1" arrows="1" fold="1" page="1" pageScale="1" pageWidth="827" pageHeight="1169" math="0" shadow="0">
      <root>
        <mxCell id="0" />
        <mxCell id="1" parent="0" />
        <mxCell id="aFhL4_qxfrScCRhHYYgj-99" style="edgeStyle=orthogonalEdgeStyle;rounded=0;orthogonalLoop=1;jettySize=auto;html=1;entryX=1;entryY=0.5;entryDx=0;entryDy=0;fontSize=15;" edge="1" parent="1" source="aFhL4_qxfrScCRhHYYgj-16" target="aFhL4_qxfrScCRhHYYgj-98">
          <mxGeometry relative="1" as="geometry">
            <Array as="points">
              <mxPoint x="-320" y="331" />
              <mxPoint x="-320" y="505" />
            </Array>
          </mxGeometry>
        </mxCell>
        <mxCell id="aFhL4_qxfrScCRhHYYgj-16" value="&lt;span style=&quot;font-size: 16px&quot;&gt;主菜单：默认发送&lt;/span&gt;" style="swimlane;fontStyle=0;childLayout=stackLayout;horizontal=1;startSize=26;horizontalStack=0;resizeParent=1;resizeParentMax=0;resizeLast=0;collapsible=1;marginBottom=0;rounded=0;fillColor=none;gradientColor=none;html=1;align=center;" vertex="1" parent="1">
          <mxGeometry x="-140" y="240" width="140" height="182" as="geometry">
            <mxRectangle x="450" y="490" width="160" height="26" as="alternateBounds" />
          </mxGeometry>
        </mxCell>
        <mxCell id="aFhL4_qxfrScCRhHYYgj-17" value="签到" style="text;strokeColor=#6c8ebf;fillColor=#dae8fc;align=center;verticalAlign=top;spacingLeft=4;spacingRight=4;overflow=hidden;rotatable=0;points=[[0,0.5],[1,0.5]];portConstraint=eastwest;whiteSpace=wrap;" vertex="1" parent="aFhL4_qxfrScCRhHYYgj-16">
          <mxGeometry y="26" width="140" height="26" as="geometry" />
        </mxCell>
        <mxCell id="aFhL4_qxfrScCRhHYYgj-18" value="分类" style="text;strokeColor=#82b366;fillColor=#d5e8d4;align=center;verticalAlign=top;spacingLeft=4;spacingRight=4;overflow=hidden;rotatable=0;points=[[0,0.5],[1,0.5]];portConstraint=eastwest;" vertex="1" parent="aFhL4_qxfrScCRhHYYgj-16">
          <mxGeometry y="52" width="140" height="26" as="geometry" />
        </mxCell>
        <mxCell id="aFhL4_qxfrScCRhHYYgj-19" value="记录&#xa;" style="text;strokeColor=#6c8ebf;fillColor=#dae8fc;align=center;verticalAlign=top;spacingLeft=4;spacingRight=4;overflow=hidden;rotatable=0;points=[[0,0.5],[1,0.5]];portConstraint=eastwest;" vertex="1" parent="aFhL4_qxfrScCRhHYYgj-16">
          <mxGeometry y="78" width="140" height="26" as="geometry" />
        </mxCell>
        <mxCell id="aFhL4_qxfrScCRhHYYgj-41" value="积分" style="text;strokeColor=#6c8ebf;fillColor=#dae8fc;align=center;verticalAlign=top;spacingLeft=4;spacingRight=4;overflow=hidden;rotatable=0;points=[[0,0.5],[1,0.5]];portConstraint=eastwest;rounded=0;html=1;" vertex="1" parent="aFhL4_qxfrScCRhHYYgj-16">
          <mxGeometry y="104" width="140" height="26" as="geometry" />
        </mxCell>
        <mxCell id="aFhL4_qxfrScCRhHYYgj-40" value="规则" style="text;strokeColor=#6c8ebf;fillColor=#dae8fc;align=center;verticalAlign=top;spacingLeft=4;spacingRight=4;overflow=hidden;rotatable=0;points=[[0,0.5],[1,0.5]];portConstraint=eastwest;rounded=0;html=1;" vertex="1" parent="aFhL4_qxfrScCRhHYYgj-16">
          <mxGeometry y="130" width="140" height="26" as="geometry" />
        </mxCell>
        <mxCell id="aFhL4_qxfrScCRhHYYgj-39" value="商城" style="text;strokeColor=#82b366;fillColor=#d5e8d4;align=center;verticalAlign=top;spacingLeft=4;spacingRight=4;overflow=hidden;rotatable=0;points=[[0,0.5],[1,0.5]];portConstraint=eastwest;rounded=0;html=1;" vertex="1" parent="aFhL4_qxfrScCRhHYYgj-16">
          <mxGeometry y="156" width="140" height="26" as="geometry" />
        </mxCell>
        <mxCell id="aFhL4_qxfrScCRhHYYgj-97" style="edgeStyle=orthogonalEdgeStyle;rounded=0;orthogonalLoop=1;jettySize=auto;html=1;entryX=0.446;entryY=1.025;entryDx=0;entryDy=0;entryPerimeter=0;fontSize=15;" edge="1" parent="1" source="aFhL4_qxfrScCRhHYYgj-54" target="aFhL4_qxfrScCRhHYYgj-96">
          <mxGeometry relative="1" as="geometry" />
        </mxCell>
        <mxCell id="aFhL4_qxfrScCRhHYYgj-54" value="&lt;span style=&quot;font-size: 15px&quot;&gt;二级菜单：&lt;/span&gt;&lt;br style=&quot;font-size: 15px&quot;&gt;&lt;span style=&quot;font-size: 15px&quot;&gt;输入“分类”&lt;/span&gt;" style="swimlane;fontStyle=0;childLayout=stackLayout;horizontal=1;startSize=50;fillColor=#008a00;horizontalStack=0;resizeParent=1;resizeParentMax=0;resizeLast=0;collapsible=1;marginBottom=0;rounded=0;align=center;verticalAlign=top;html=1;strokeColor=#005700;fontColor=#ffffff;" vertex="1" collapsed="1" parent="1">
          <mxGeometry x="60" y="229" width="110" height="50" as="geometry">
            <mxRectangle x="130" y="228" width="140" height="154" as="alternateBounds" />
          </mxGeometry>
        </mxCell>
        <mxCell id="aFhL4_qxfrScCRhHYYgj-55" value="学习" style="text;strokeColor=#82b366;fillColor=#d5e8d4;align=center;verticalAlign=top;spacingLeft=4;spacingRight=4;overflow=hidden;rotatable=0;points=[[0,0.5],[1,0.5]];portConstraint=eastwest;" vertex="1" parent="aFhL4_qxfrScCRhHYYgj-54">
          <mxGeometry y="50" width="110" height="26" as="geometry" />
        </mxCell>
        <mxCell id="aFhL4_qxfrScCRhHYYgj-56" value="猫咪" style="text;strokeColor=#82b366;fillColor=#d5e8d4;align=center;verticalAlign=top;spacingLeft=4;spacingRight=4;overflow=hidden;rotatable=0;points=[[0,0.5],[1,0.5]];portConstraint=eastwest;" vertex="1" parent="aFhL4_qxfrScCRhHYYgj-54">
          <mxGeometry y="76" width="110" height="26" as="geometry" />
        </mxCell>
        <mxCell id="aFhL4_qxfrScCRhHYYgj-59" value="&lt;div&gt;护肤&lt;/div&gt;&lt;div&gt;&lt;br&gt;&lt;/div&gt;" style="text;strokeColor=#82b366;fillColor=#d5e8d4;align=center;verticalAlign=top;spacingLeft=4;spacingRight=4;overflow=hidden;rotatable=0;points=[[0,0.5],[1,0.5]];portConstraint=eastwest;rounded=0;html=1;" vertex="1" parent="aFhL4_qxfrScCRhHYYgj-54">
          <mxGeometry y="102" width="110" height="26" as="geometry" />
        </mxCell>
        <mxCell id="aFhL4_qxfrScCRhHYYgj-57" value="家政" style="text;strokeColor=#82b366;fillColor=#d5e8d4;align=center;verticalAlign=top;spacingLeft=4;spacingRight=4;overflow=hidden;rotatable=0;points=[[0,0.5],[1,0.5]];portConstraint=eastwest;" vertex="1" parent="aFhL4_qxfrScCRhHYYgj-54">
          <mxGeometry y="128" width="110" height="26" as="geometry" />
        </mxCell>
        <mxCell id="aFhL4_qxfrScCRhHYYgj-60" style="edgeStyle=orthogonalEdgeStyle;rounded=0;orthogonalLoop=1;jettySize=auto;html=1;" edge="1" parent="1" source="aFhL4_qxfrScCRhHYYgj-18" target="aFhL4_qxfrScCRhHYYgj-54">
          <mxGeometry relative="1" as="geometry" />
        </mxCell>
        <mxCell id="aFhL4_qxfrScCRhHYYgj-61" value="签到规则" style="swimlane;rounded=0;fillColor=none;gradientColor=none;align=center;verticalAlign=top;html=1;startSize=0;" vertex="1" parent="1">
          <mxGeometry x="-370" y="40" width="340" height="180" as="geometry">
            <mxRectangle x="-370" y="40" width="80" height="23" as="alternateBounds" />
          </mxGeometry>
        </mxCell>
        <mxCell id="aFhL4_qxfrScCRhHYYgj-62" value="&lt;ul style=&quot;font-size: 16px&quot;&gt;&lt;li&gt;&lt;span style=&quot;background-color: rgba(0 , 0 , 0 , 0) ; color: rgb(89 , 89 , 89)&quot;&gt;第一天经验+1&lt;/span&gt;&lt;/li&gt;&lt;li&gt;&lt;span style=&quot;background-color: rgba(0 , 0 , 0 , 0) ; color: rgb(89 , 89 , 89)&quot;&gt;第二天经验+3&lt;/span&gt;&lt;/li&gt;&lt;li&gt;&lt;span style=&quot;background-color: rgba(0 , 0 , 0 , 0) ; color: rgb(89 , 89 , 89)&quot;&gt;第三天经验+4&lt;/span&gt;&lt;/li&gt;&lt;li&gt;&lt;span style=&quot;background-color: rgba(0 , 0 , 0 , 0) ; color: rgb(89 , 89 , 89)&quot;&gt;第四天经验+6&lt;/span&gt;&lt;/li&gt;&lt;li&gt;&lt;span style=&quot;background-color: rgba(0 , 0 , 0 , 0) ; color: rgb(89 , 89 , 89)&quot;&gt;第五天经验+7&lt;/span&gt;&lt;/li&gt;&lt;li&gt;&lt;span style=&quot;background-color: rgba(0 , 0 , 0 , 0) ; color: rgb(89 , 89 , 89)&quot;&gt;第六天经验+9&lt;/span&gt;&lt;/li&gt;&lt;li&gt;&lt;span style=&quot;background-color: rgba(0 , 0 , 0 , 0) ; color: rgb(89 , 89 , 89)&quot;&gt;第七天及以上经验+10，金币+1，耐力+1&lt;/span&gt;&lt;/li&gt;&lt;/ul&gt;" style="text;html=1;align=left;verticalAlign=middle;resizable=0;points=[];autosize=1;strokeColor=none;fillColor=none;" vertex="1" parent="aFhL4_qxfrScCRhHYYgj-61">
          <mxGeometry y="30" width="340" height="140" as="geometry" />
        </mxCell>
        <mxCell id="aFhL4_qxfrScCRhHYYgj-63" style="edgeStyle=orthogonalEdgeStyle;rounded=0;orthogonalLoop=1;jettySize=auto;html=1;entryX=0.5;entryY=1;entryDx=0;entryDy=0;" edge="1" parent="1" source="aFhL4_qxfrScCRhHYYgj-17" target="aFhL4_qxfrScCRhHYYgj-61">
          <mxGeometry relative="1" as="geometry" />
        </mxCell>
        <mxCell id="aFhL4_qxfrScCRhHYYgj-64" value="List" style="swimlane;fontStyle=0;childLayout=stackLayout;horizontal=1;startSize=26;fillColor=#1ba1e2;horizontalStack=0;resizeParent=1;resizeParentMax=0;resizeLast=0;collapsible=1;marginBottom=0;rounded=0;align=center;verticalAlign=top;html=1;strokeColor=#006EAF;fontColor=#ffffff;" vertex="1" collapsed="1" parent="1">
          <mxGeometry x="440" width="50" height="26" as="geometry">
            <mxRectangle x="440" width="140" height="104" as="alternateBounds" />
          </mxGeometry>
        </mxCell>
        <mxCell id="aFhL4_qxfrScCRhHYYgj-65" value="Item 1" style="text;strokeColor=none;fillColor=#dae8fc;align=left;verticalAlign=top;spacingLeft=4;spacingRight=4;overflow=hidden;rotatable=0;points=[[0,0.5],[1,0.5]];portConstraint=eastwest;" vertex="1" parent="aFhL4_qxfrScCRhHYYgj-64">
          <mxGeometry y="26" width="50" height="26" as="geometry" />
        </mxCell>
        <mxCell id="aFhL4_qxfrScCRhHYYgj-66" value="Item 2" style="text;strokeColor=none;fillColor=#dae8fc;align=left;verticalAlign=top;spacingLeft=4;spacingRight=4;overflow=hidden;rotatable=0;points=[[0,0.5],[1,0.5]];portConstraint=eastwest;" vertex="1" parent="aFhL4_qxfrScCRhHYYgj-64">
          <mxGeometry y="52" width="50" height="26" as="geometry" />
        </mxCell>
        <mxCell id="aFhL4_qxfrScCRhHYYgj-67" value="Item 3" style="text;strokeColor=none;fillColor=#dae8fc;align=left;verticalAlign=top;spacingLeft=4;spacingRight=4;overflow=hidden;rotatable=0;points=[[0,0.5],[1,0.5]];portConstraint=eastwest;" vertex="1" parent="aFhL4_qxfrScCRhHYYgj-64">
          <mxGeometry y="78" width="50" height="26" as="geometry" />
        </mxCell>
        <mxCell id="aFhL4_qxfrScCRhHYYgj-68" value="List" style="swimlane;fontStyle=0;childLayout=stackLayout;horizontal=1;startSize=26;fillColor=#1ba1e2;horizontalStack=0;resizeParent=1;resizeParentMax=0;resizeLast=0;collapsible=1;marginBottom=0;rounded=0;align=center;verticalAlign=top;html=1;strokeColor=#006EAF;fontColor=#ffffff;" vertex="1" collapsed="1" parent="1">
          <mxGeometry x="440" y="253" width="50" height="26" as="geometry">
            <mxRectangle x="440" y="253" width="140" height="104" as="alternateBounds" />
          </mxGeometry>
        </mxCell>
        <mxCell id="aFhL4_qxfrScCRhHYYgj-69" value="Item 1" style="text;strokeColor=none;fillColor=#dae8fc;align=left;verticalAlign=top;spacingLeft=4;spacingRight=4;overflow=hidden;rotatable=0;points=[[0,0.5],[1,0.5]];portConstraint=eastwest;" vertex="1" parent="aFhL4_qxfrScCRhHYYgj-68">
          <mxGeometry y="26" width="50" height="26" as="geometry" />
        </mxCell>
        <mxCell id="aFhL4_qxfrScCRhHYYgj-70" value="Item 2" style="text;strokeColor=none;fillColor=#dae8fc;align=left;verticalAlign=top;spacingLeft=4;spacingRight=4;overflow=hidden;rotatable=0;points=[[0,0.5],[1,0.5]];portConstraint=eastwest;" vertex="1" parent="aFhL4_qxfrScCRhHYYgj-68">
          <mxGeometry y="52" width="50" height="26" as="geometry" />
        </mxCell>
        <mxCell id="aFhL4_qxfrScCRhHYYgj-71" value="Item 3" style="text;strokeColor=none;fillColor=#dae8fc;align=left;verticalAlign=top;spacingLeft=4;spacingRight=4;overflow=hidden;rotatable=0;points=[[0,0.5],[1,0.5]];portConstraint=eastwest;" vertex="1" parent="aFhL4_qxfrScCRhHYYgj-68">
          <mxGeometry y="78" width="50" height="26" as="geometry" />
        </mxCell>
        <mxCell id="aFhL4_qxfrScCRhHYYgj-72" value="List" style="swimlane;fontStyle=0;childLayout=stackLayout;horizontal=1;startSize=26;fillColor=#1ba1e2;horizontalStack=0;resizeParent=1;resizeParentMax=0;resizeLast=0;collapsible=1;marginBottom=0;rounded=0;align=center;verticalAlign=top;html=1;strokeColor=#006EAF;fontColor=#ffffff;" vertex="1" collapsed="1" parent="1">
          <mxGeometry x="440" y="124" width="50" height="26" as="geometry">
            <mxRectangle x="440" y="124" width="140" height="104" as="alternateBounds" />
          </mxGeometry>
        </mxCell>
        <mxCell id="aFhL4_qxfrScCRhHYYgj-73" value="Item 1" style="text;strokeColor=none;fillColor=#dae8fc;align=left;verticalAlign=top;spacingLeft=4;spacingRight=4;overflow=hidden;rotatable=0;points=[[0,0.5],[1,0.5]];portConstraint=eastwest;" vertex="1" parent="aFhL4_qxfrScCRhHYYgj-72">
          <mxGeometry y="26" width="50" height="26" as="geometry" />
        </mxCell>
        <mxCell id="aFhL4_qxfrScCRhHYYgj-74" value="Item 2" style="text;strokeColor=none;fillColor=#dae8fc;align=left;verticalAlign=top;spacingLeft=4;spacingRight=4;overflow=hidden;rotatable=0;points=[[0,0.5],[1,0.5]];portConstraint=eastwest;" vertex="1" parent="aFhL4_qxfrScCRhHYYgj-72">
          <mxGeometry y="52" width="50" height="26" as="geometry" />
        </mxCell>
        <mxCell id="aFhL4_qxfrScCRhHYYgj-75" value="Item 3" style="text;strokeColor=none;fillColor=#dae8fc;align=left;verticalAlign=top;spacingLeft=4;spacingRight=4;overflow=hidden;rotatable=0;points=[[0,0.5],[1,0.5]];portConstraint=eastwest;" vertex="1" parent="aFhL4_qxfrScCRhHYYgj-72">
          <mxGeometry y="78" width="50" height="26" as="geometry" />
        </mxCell>
        <mxCell id="aFhL4_qxfrScCRhHYYgj-76" value="List" style="swimlane;fontStyle=0;childLayout=stackLayout;horizontal=1;startSize=26;fillColor=#1ba1e2;horizontalStack=0;resizeParent=1;resizeParentMax=0;resizeLast=0;collapsible=1;marginBottom=0;rounded=0;align=center;verticalAlign=top;html=1;strokeColor=#006EAF;fontColor=#ffffff;" vertex="1" collapsed="1" parent="1">
          <mxGeometry x="440" y="390" width="50" height="26" as="geometry">
            <mxRectangle x="440" y="390" width="140" height="104" as="alternateBounds" />
          </mxGeometry>
        </mxCell>
        <mxCell id="aFhL4_qxfrScCRhHYYgj-77" value="Item 1" style="text;strokeColor=none;fillColor=#dae8fc;align=left;verticalAlign=top;spacingLeft=4;spacingRight=4;overflow=hidden;rotatable=0;points=[[0,0.5],[1,0.5]];portConstraint=eastwest;" vertex="1" parent="aFhL4_qxfrScCRhHYYgj-76">
          <mxGeometry y="26" width="50" height="26" as="geometry" />
        </mxCell>
        <mxCell id="aFhL4_qxfrScCRhHYYgj-78" value="Item 2" style="text;strokeColor=none;fillColor=#dae8fc;align=left;verticalAlign=top;spacingLeft=4;spacingRight=4;overflow=hidden;rotatable=0;points=[[0,0.5],[1,0.5]];portConstraint=eastwest;" vertex="1" parent="aFhL4_qxfrScCRhHYYgj-76">
          <mxGeometry y="52" width="50" height="26" as="geometry" />
        </mxCell>
        <mxCell id="aFhL4_qxfrScCRhHYYgj-79" value="Item 3" style="text;strokeColor=none;fillColor=#dae8fc;align=left;verticalAlign=top;spacingLeft=4;spacingRight=4;overflow=hidden;rotatable=0;points=[[0,0.5],[1,0.5]];portConstraint=eastwest;" vertex="1" parent="aFhL4_qxfrScCRhHYYgj-76">
          <mxGeometry y="78" width="50" height="26" as="geometry" />
        </mxCell>
        <mxCell id="aFhL4_qxfrScCRhHYYgj-80" style="edgeStyle=orthogonalEdgeStyle;rounded=0;orthogonalLoop=1;jettySize=auto;html=1;" edge="1" parent="1" source="aFhL4_qxfrScCRhHYYgj-55" target="aFhL4_qxfrScCRhHYYgj-64">
          <mxGeometry relative="1" as="geometry">
            <Array as="points">
              <mxPoint x="360" y="291" />
              <mxPoint x="360" y="52" />
            </Array>
          </mxGeometry>
        </mxCell>
        <mxCell id="aFhL4_qxfrScCRhHYYgj-81" style="edgeStyle=orthogonalEdgeStyle;rounded=0;orthogonalLoop=1;jettySize=auto;html=1;" edge="1" parent="1" source="aFhL4_qxfrScCRhHYYgj-56" target="aFhL4_qxfrScCRhHYYgj-72">
          <mxGeometry relative="1" as="geometry">
            <Array as="points">
              <mxPoint x="400" y="317" />
              <mxPoint x="400" y="152" />
            </Array>
          </mxGeometry>
        </mxCell>
        <mxCell id="aFhL4_qxfrScCRhHYYgj-82" style="edgeStyle=orthogonalEdgeStyle;rounded=0;orthogonalLoop=1;jettySize=auto;html=1;entryX=0;entryY=0.125;entryDx=0;entryDy=0;entryPerimeter=0;" edge="1" parent="1" source="aFhL4_qxfrScCRhHYYgj-59" target="aFhL4_qxfrScCRhHYYgj-68">
          <mxGeometry relative="1" as="geometry">
            <Array as="points">
              <mxPoint x="420" y="343" />
              <mxPoint x="420" y="266" />
            </Array>
          </mxGeometry>
        </mxCell>
        <mxCell id="aFhL4_qxfrScCRhHYYgj-86" style="edgeStyle=orthogonalEdgeStyle;rounded=0;orthogonalLoop=1;jettySize=auto;html=1;entryX=0.5;entryY=1;entryDx=0;entryDy=0;" edge="1" parent="1" source="aFhL4_qxfrScCRhHYYgj-57" target="aFhL4_qxfrScCRhHYYgj-76">
          <mxGeometry relative="1" as="geometry" />
        </mxCell>
        <mxCell id="aFhL4_qxfrScCRhHYYgj-92" style="edgeStyle=orthogonalEdgeStyle;rounded=0;orthogonalLoop=1;jettySize=auto;html=1;entryX=0;entryY=0.5;entryDx=0;entryDy=0;fontSize=15;" edge="1" parent="1" source="aFhL4_qxfrScCRhHYYgj-91" target="aFhL4_qxfrScCRhHYYgj-17">
          <mxGeometry relative="1" as="geometry" />
        </mxCell>
        <mxCell id="aFhL4_qxfrScCRhHYYgj-91" value="&lt;span&gt;当用户当天第一次签到时，&lt;/span&gt;&lt;br&gt;&lt;span&gt;更新签到表以及用户表；&lt;/span&gt;&lt;br&gt;&lt;span&gt;重复签到则发送提示&lt;/span&gt;&lt;br&gt;&lt;span&gt;“今天已经签到。”&lt;/span&gt;" style="shape=process;whiteSpace=wrap;html=1;backgroundOutline=1;rounded=0;fontSize=15;fillColor=none;gradientColor=none;align=left;verticalAlign=top;" vertex="1" parent="1">
          <mxGeometry x="-580" y="215.5" width="193" height="127" as="geometry" />
        </mxCell>
        <mxCell id="aFhL4_qxfrScCRhHYYgj-96" value="&lt;div&gt;用户输入“分类”后，&lt;/div&gt;&lt;div&gt;展示二级菜单，&lt;/div&gt;&lt;div&gt;输入二级菜单的内容后&lt;/div&gt;&lt;div&gt;展示三级菜单&lt;/div&gt;&lt;div&gt;输入三级菜单的内容时&lt;/div&gt;&lt;div&gt;显示奖励内容&lt;/div&gt;" style="shape=process;whiteSpace=wrap;html=1;backgroundOutline=1;rounded=0;fontSize=15;fillColor=none;gradientColor=none;align=left;verticalAlign=top;" vertex="1" parent="1">
          <mxGeometry x="10" y="30" width="230" height="120" as="geometry" />
        </mxCell>
        <mxCell id="aFhL4_qxfrScCRhHYYgj-105" value="" style="group" vertex="1" connectable="0" parent="1">
          <mxGeometry x="-820" y="370" width="450" height="270" as="geometry" />
        </mxCell>
        <mxCell id="aFhL4_qxfrScCRhHYYgj-98" value="用户输入“记录”后，&lt;br&gt;后台发送提示“请记录信息：”，接下来根据用户发送信息进行判断：&lt;br&gt;&lt;span&gt;&lt;br&gt;1.用户输入三级菜单内容时，更新用户表以及显示奖励结果；&lt;br&gt;2.用户输入其他信息时，发送提示“输入内容不可记录，是否退出”，当用户答复退出时，则退出记录，否则等待用户继续输入；&lt;br&gt;&lt;br&gt;高级功能1：当用户输入“记”+三级分类时，自动更新用户表以及显示奖励结果；&lt;br&gt;&lt;br&gt;高级功能2：撤回效果；&lt;br&gt;&lt;/span&gt;" style="shape=process;whiteSpace=wrap;html=1;backgroundOutline=1;rounded=0;fontSize=15;fillColor=none;gradientColor=none;align=left;verticalAlign=top;" vertex="1" parent="aFhL4_qxfrScCRhHYYgj-105">
          <mxGeometry width="450" height="270" as="geometry" />
        </mxCell>
        <mxCell id="aFhL4_qxfrScCRhHYYgj-103" value="" style="line;strokeWidth=4;html=1;perimeter=backbonePerimeter;points=[];outlineConnect=0;rounded=0;fontSize=15;fillColor=none;gradientColor=none;align=left;verticalAlign=top;" vertex="1" parent="aFhL4_qxfrScCRhHYYgj-105">
          <mxGeometry y="170" width="450" height="10" as="geometry" />
        </mxCell>
        <mxCell id="aFhL4_qxfrScCRhHYYgj-107" style="edgeStyle=orthogonalEdgeStyle;rounded=0;orthogonalLoop=1;jettySize=auto;html=1;entryX=1;entryY=0.5;entryDx=0;entryDy=0;fontSize=15;" edge="1" parent="1" source="aFhL4_qxfrScCRhHYYgj-106" target="aFhL4_qxfrScCRhHYYgj-41">
          <mxGeometry relative="1" as="geometry" />
        </mxCell>
        <mxCell id="aFhL4_qxfrScCRhHYYgj-106" value="用户输入“积分”时，显示用户的金币数和经验值，以及背包内容" style="shape=process;whiteSpace=wrap;html=1;backgroundOutline=1;rounded=0;fontSize=15;fillColor=none;gradientColor=none;align=left;verticalAlign=top;" vertex="1" parent="1">
          <mxGeometry x="50" y="380" width="220" height="78" as="geometry" />
        </mxCell>
        <mxCell id="aFhL4_qxfrScCRhHYYgj-111" style="edgeStyle=orthogonalEdgeStyle;rounded=0;orthogonalLoop=1;jettySize=auto;html=1;fontSize=15;" edge="1" parent="1" source="aFhL4_qxfrScCRhHYYgj-108" target="aFhL4_qxfrScCRhHYYgj-40">
          <mxGeometry relative="1" as="geometry" />
        </mxCell>
        <mxCell id="aFhL4_qxfrScCRhHYYgj-108" value="用户输入规则时，显示规则" style="shape=process;whiteSpace=wrap;html=1;backgroundOutline=1;rounded=0;fontSize=15;fillColor=none;gradientColor=none;align=left;verticalAlign=top;" vertex="1" parent="1">
          <mxGeometry x="-290" y="353" width="120" height="60" as="geometry" />
        </mxCell>
        <mxCell id="aFhL4_qxfrScCRhHYYgj-114" style="edgeStyle=orthogonalEdgeStyle;rounded=0;orthogonalLoop=1;jettySize=auto;html=1;fontSize=15;" edge="1" parent="1" source="aFhL4_qxfrScCRhHYYgj-112" target="aFhL4_qxfrScCRhHYYgj-40">
          <mxGeometry relative="1" as="geometry">
            <Array as="points">
              <mxPoint x="20" y="533" />
              <mxPoint x="20" y="383" />
            </Array>
          </mxGeometry>
        </mxCell>
        <mxCell id="aFhL4_qxfrScCRhHYYgj-112" value="规则" style="swimlane;rounded=0;fontSize=15;fillColor=none;gradientColor=none;align=center;verticalAlign=top;html=1;" vertex="1" parent="1">
          <mxGeometry x="80" y="490" width="160" height="85" as="geometry" />
        </mxCell>
        <mxCell id="aFhL4_qxfrScCRhHYYgj-113" value="简单的游戏介绍及&lt;br&gt;规则解说" style="text;html=1;align=center;verticalAlign=middle;resizable=0;points=[];autosize=1;strokeColor=none;fillColor=none;fontSize=15;" vertex="1" parent="aFhL4_qxfrScCRhHYYgj-112">
          <mxGeometry x="10" y="32.5" width="140" height="40" as="geometry" />
        </mxCell>
        <mxCell id="aFhL4_qxfrScCRhHYYgj-119" style="edgeStyle=orthogonalEdgeStyle;rounded=0;orthogonalLoop=1;jettySize=auto;html=1;fontSize=15;" edge="1" parent="1" source="aFhL4_qxfrScCRhHYYgj-115" target="aFhL4_qxfrScCRhHYYgj-39">
          <mxGeometry relative="1" as="geometry">
            <Array as="points">
              <mxPoint x="-200" y="480" />
              <mxPoint x="-70" y="480" />
            </Array>
          </mxGeometry>
        </mxCell>
        <mxCell id="aFhL4_qxfrScCRhHYYgj-115" value="商城" style="swimlane;fontStyle=0;childLayout=stackLayout;horizontal=1;startSize=26;fillColor=#a20025;horizontalStack=0;resizeParent=1;resizeParentMax=0;resizeLast=0;collapsible=1;marginBottom=0;rounded=0;fontSize=15;align=center;verticalAlign=top;html=1;strokeColor=#6F0000;fontColor=#ffffff;" vertex="1" parent="1">
          <mxGeometry x="-260" y="520" width="140" height="78" as="geometry" />
        </mxCell>
        <mxCell id="aFhL4_qxfrScCRhHYYgj-116" value="普通货架" style="text;strokeColor=#b85450;fillColor=#f8cecc;align=center;verticalAlign=top;spacingLeft=4;spacingRight=4;overflow=hidden;rotatable=0;points=[[0,0.5],[1,0.5]];portConstraint=eastwest;" vertex="1" parent="aFhL4_qxfrScCRhHYYgj-115">
          <mxGeometry y="26" width="140" height="26" as="geometry" />
        </mxCell>
        <mxCell id="aFhL4_qxfrScCRhHYYgj-117" value="特殊货架" style="text;strokeColor=#b85450;fillColor=#f8cecc;align=center;verticalAlign=top;spacingLeft=4;spacingRight=4;overflow=hidden;rotatable=0;points=[[0,0.5],[1,0.5]];portConstraint=eastwest;" vertex="1" parent="aFhL4_qxfrScCRhHYYgj-115">
          <mxGeometry y="52" width="140" height="26" as="geometry" />
        </mxCell>
        <mxCell id="aFhL4_qxfrScCRhHYYgj-120" value="普通货架" style="swimlane;fontStyle=0;childLayout=stackLayout;horizontal=1;startSize=26;fillColor=#e51400;horizontalStack=0;resizeParent=1;resizeParentMax=0;resizeLast=0;collapsible=1;marginBottom=0;rounded=0;fontSize=15;align=center;verticalAlign=top;html=1;strokeColor=#B20000;fontColor=#ffffff;" vertex="1" collapsed="1" parent="1">
          <mxGeometry x="-100" y="630" width="90" height="26" as="geometry">
            <mxRectangle x="-100" y="630" width="140" height="104" as="alternateBounds" />
          </mxGeometry>
        </mxCell>
        <mxCell id="aFhL4_qxfrScCRhHYYgj-121" value="Item 1" style="text;strokeColor=none;fillColor=none;align=left;verticalAlign=top;spacingLeft=4;spacingRight=4;overflow=hidden;rotatable=0;points=[[0,0.5],[1,0.5]];portConstraint=eastwest;" vertex="1" parent="aFhL4_qxfrScCRhHYYgj-120">
          <mxGeometry y="26" width="90" height="26" as="geometry" />
        </mxCell>
        <mxCell id="aFhL4_qxfrScCRhHYYgj-122" value="Item 2" style="text;strokeColor=none;fillColor=none;align=left;verticalAlign=top;spacingLeft=4;spacingRight=4;overflow=hidden;rotatable=0;points=[[0,0.5],[1,0.5]];portConstraint=eastwest;" vertex="1" parent="aFhL4_qxfrScCRhHYYgj-120">
          <mxGeometry y="52" width="90" height="26" as="geometry" />
        </mxCell>
        <mxCell id="aFhL4_qxfrScCRhHYYgj-123" value="Item 3" style="text;strokeColor=none;fillColor=none;align=left;verticalAlign=top;spacingLeft=4;spacingRight=4;overflow=hidden;rotatable=0;points=[[0,0.5],[1,0.5]];portConstraint=eastwest;" vertex="1" parent="aFhL4_qxfrScCRhHYYgj-120">
          <mxGeometry y="78" width="90" height="26" as="geometry" />
        </mxCell>
        <mxCell id="aFhL4_qxfrScCRhHYYgj-124" value="特殊货架" style="swimlane;fontStyle=0;childLayout=stackLayout;horizontal=1;startSize=26;fillColor=#e51400;horizontalStack=0;resizeParent=1;resizeParentMax=0;resizeLast=0;collapsible=1;marginBottom=0;rounded=0;fontSize=15;align=center;verticalAlign=top;html=1;strokeColor=#B20000;fontColor=#ffffff;" vertex="1" collapsed="1" parent="1">
          <mxGeometry x="-330" y="650" width="90" height="26" as="geometry">
            <mxRectangle x="-300" y="650" width="140" height="104" as="alternateBounds" />
          </mxGeometry>
        </mxCell>
        <mxCell id="aFhL4_qxfrScCRhHYYgj-125" value="Item 1" style="text;strokeColor=none;fillColor=none;align=left;verticalAlign=top;spacingLeft=4;spacingRight=4;overflow=hidden;rotatable=0;points=[[0,0.5],[1,0.5]];portConstraint=eastwest;" vertex="1" parent="aFhL4_qxfrScCRhHYYgj-124">
          <mxGeometry y="26" width="90" height="26" as="geometry" />
        </mxCell>
        <mxCell id="aFhL4_qxfrScCRhHYYgj-126" value="Item 2" style="text;strokeColor=none;fillColor=none;align=left;verticalAlign=top;spacingLeft=4;spacingRight=4;overflow=hidden;rotatable=0;points=[[0,0.5],[1,0.5]];portConstraint=eastwest;" vertex="1" parent="aFhL4_qxfrScCRhHYYgj-124">
          <mxGeometry y="52" width="90" height="26" as="geometry" />
        </mxCell>
        <mxCell id="aFhL4_qxfrScCRhHYYgj-127" value="Item 3" style="text;strokeColor=none;fillColor=none;align=left;verticalAlign=top;spacingLeft=4;spacingRight=4;overflow=hidden;rotatable=0;points=[[0,0.5],[1,0.5]];portConstraint=eastwest;" vertex="1" parent="aFhL4_qxfrScCRhHYYgj-124">
          <mxGeometry y="78" width="90" height="26" as="geometry" />
        </mxCell>
        <mxCell id="aFhL4_qxfrScCRhHYYgj-128" style="edgeStyle=orthogonalEdgeStyle;rounded=0;orthogonalLoop=1;jettySize=auto;html=1;entryX=0.5;entryY=0;entryDx=0;entryDy=0;fontSize=15;" edge="1" parent="1" source="aFhL4_qxfrScCRhHYYgj-116" target="aFhL4_qxfrScCRhHYYgj-120">
          <mxGeometry relative="1" as="geometry" />
        </mxCell>
        <mxCell id="aFhL4_qxfrScCRhHYYgj-129" style="edgeStyle=orthogonalEdgeStyle;rounded=0;orthogonalLoop=1;jettySize=auto;html=1;fontSize=15;" edge="1" parent="1" source="aFhL4_qxfrScCRhHYYgj-117" target="aFhL4_qxfrScCRhHYYgj-124">
          <mxGeometry relative="1" as="geometry" />
        </mxCell>
      </root>
    </mxGraphModel>
  </diagram>
  <diagram id="uBCG-4SiUswnVOsWm8xN" name="第 2 页">
    <mxGraphModel dx="1022" dy="555" grid="1" gridSize="10" guides="1" tooltips="1" connect="1" arrows="1" fold="1" page="1" pageScale="1" pageWidth="827" pageHeight="1169" math="0" shadow="0">
      <root>
        <mxCell id="Yxb51bE3aqmOWf9K0Pek-0" />
        <mxCell id="Yxb51bE3aqmOWf9K0Pek-1" parent="Yxb51bE3aqmOWf9K0Pek-0" />
        <mxCell id="-C2fDPN5Bqkar5Dweoa7-0" value="input" style="shape=mxgraph.flowchart.terminator;strokeWidth=2;gradientColor=none;gradientDirection=north;fontStyle=0;html=1;" vertex="1" parent="Yxb51bE3aqmOWf9K0Pek-1">
          <mxGeometry x="160" y="310" width="120" height="30" as="geometry" />
        </mxCell>
        <mxCell id="-C2fDPN5Bqkar5Dweoa7-1" value="analyse datas" style="shape=mxgraph.flowchart.data;strokeWidth=2;gradientColor=none;gradientDirection=north;fontStyle=0;html=1;" vertex="1" parent="Yxb51bE3aqmOWf9K0Pek-1">
          <mxGeometry x="140.5" y="380" width="159" height="80" as="geometry" />
        </mxCell>
        <mxCell id="-C2fDPN5Bqkar5Dweoa7-2" value="create&#xa;material&#xa;specification" style="shape=mxgraph.flowchart.data;strokeWidth=2;gradientColor=none;gradientDirection=north;fontStyle=0;html=1;" vertex="1" parent="Yxb51bE3aqmOWf9K0Pek-1">
          <mxGeometry x="140.5" y="760" width="159" height="80" as="geometry" />
        </mxCell>
        <mxCell id="-C2fDPN5Bqkar5Dweoa7-3" value="&lt;font style=&quot;vertical-align: inherit&quot;&gt;&lt;font style=&quot;vertical-align: inherit&quot;&gt;information&lt;/font&gt;&lt;/font&gt;" style="shape=mxgraph.flowchart.data;strokeWidth=2;gradientColor=none;gradientDirection=north;fontStyle=0;html=1;" vertex="1" parent="Yxb51bE3aqmOWf9K0Pek-1">
          <mxGeometry x="140.5" y="500" width="159" height="80" as="geometry" />
        </mxCell>
        <mxCell id="-C2fDPN5Bqkar5Dweoa7-4" value="obscurities?" style="shape=mxgraph.flowchart.decision;strokeWidth=2;gradientColor=none;gradientDirection=north;fontStyle=0;html=1;" vertex="1" parent="Yxb51bE3aqmOWf9K0Pek-1">
          <mxGeometry x="171" y="640" width="98" height="57" as="geometry" />
        </mxCell>
        <mxCell id="-C2fDPN5Bqkar5Dweoa7-5" style="fontStyle=1;strokeColor=#003366;strokeWidth=1;html=1;rounded=0;edgeStyle=orthogonalEdgeStyle;" edge="1" parent="Yxb51bE3aqmOWf9K0Pek-1" source="-C2fDPN5Bqkar5Dweoa7-0" target="-C2fDPN5Bqkar5Dweoa7-1">
          <mxGeometry relative="1" as="geometry" />
        </mxCell>
        <mxCell id="-C2fDPN5Bqkar5Dweoa7-6" style="fontStyle=1;strokeColor=#003366;strokeWidth=1;html=1;rounded=0;edgeStyle=orthogonalEdgeStyle;" edge="1" parent="Yxb51bE3aqmOWf9K0Pek-1" source="-C2fDPN5Bqkar5Dweoa7-1" target="-C2fDPN5Bqkar5Dweoa7-3">
          <mxGeometry relative="1" as="geometry" />
        </mxCell>
        <mxCell id="-C2fDPN5Bqkar5Dweoa7-7" style="entryX=0.5;entryY=0;entryPerimeter=0;fontStyle=1;strokeColor=#003366;strokeWidth=1;html=1;rounded=0;edgeStyle=orthogonalEdgeStyle;" edge="1" parent="Yxb51bE3aqmOWf9K0Pek-1" source="-C2fDPN5Bqkar5Dweoa7-3" target="-C2fDPN5Bqkar5Dweoa7-4">
          <mxGeometry relative="1" as="geometry" />
        </mxCell>
        <mxCell id="-C2fDPN5Bqkar5Dweoa7-8" value="" style="edgeStyle=elbowEdgeStyle;elbow=horizontal;entryX=0.5;entryY=0.91;entryPerimeter=0;exitX=1;exitY=0.5;exitPerimeter=0;fontStyle=1;strokeColor=#003366;strokeWidth=1;html=1;rounded=0;" edge="1" parent="Yxb51bE3aqmOWf9K0Pek-1" source="-C2fDPN5Bqkar5Dweoa7-4" target="-C2fDPN5Bqkar5Dweoa7-49">
          <mxGeometry x="281" y="278.5" width="100" height="100" as="geometry">
            <mxPoint x="650" y="697" as="sourcePoint" />
            <mxPoint x="665.395" y="568.5" as="targetPoint" />
            <Array as="points">
              <mxPoint x="445" y="650" />
            </Array>
          </mxGeometry>
        </mxCell>
        <mxCell id="-C2fDPN5Bqkar5Dweoa7-9" value="yes" style="text;fontStyle=0;html=1;strokeColor=none;gradientColor=none;fillColor=none;strokeWidth=2;" vertex="1" parent="Yxb51bE3aqmOWf9K0Pek-1">
          <mxGeometry x="270" y="640" width="40" height="26" as="geometry" />
        </mxCell>
        <mxCell id="-C2fDPN5Bqkar5Dweoa7-10" value="" style="edgeStyle=elbowEdgeStyle;elbow=horizontal;fontColor=#001933;fontStyle=1;strokeColor=#003366;strokeWidth=1;html=1;rounded=0;" edge="1" parent="Yxb51bE3aqmOWf9K0Pek-1" source="-C2fDPN5Bqkar5Dweoa7-4" target="-C2fDPN5Bqkar5Dweoa7-2">
          <mxGeometry x="-100" y="250" width="100" height="100" as="geometry">
            <mxPoint x="-100" y="350" as="sourcePoint" />
            <mxPoint y="250" as="targetPoint" />
          </mxGeometry>
        </mxCell>
        <mxCell id="-C2fDPN5Bqkar5Dweoa7-11" value="order material" style="shape=mxgraph.flowchart.data;strokeWidth=2;gradientColor=none;gradientDirection=north;fontStyle=0;html=1;" vertex="1" parent="Yxb51bE3aqmOWf9K0Pek-1">
          <mxGeometry x="140.5" y="890" width="159" height="80" as="geometry" />
        </mxCell>
        <mxCell id="-C2fDPN5Bqkar5Dweoa7-12" value="no" style="text;fontStyle=0;html=1;strokeColor=none;gradientColor=none;fillColor=none;strokeWidth=2;align=center;" vertex="1" parent="Yxb51bE3aqmOWf9K0Pek-1">
          <mxGeometry x="220" y="697" width="40" height="26" as="geometry" />
        </mxCell>
        <mxCell id="-C2fDPN5Bqkar5Dweoa7-13" value="final project" style="shape=mxgraph.flowchart.document;strokeWidth=2;gradientColor=none;gradientDirection=north;fontStyle=0;html=1;" vertex="1" parent="Yxb51bE3aqmOWf9K0Pek-1">
          <mxGeometry x="380" y="765" width="140" height="70" as="geometry" />
        </mxCell>
        <mxCell id="-C2fDPN5Bqkar5Dweoa7-14" value="" style="edgeStyle=elbowEdgeStyle;elbow=horizontal;exitX=0.905;exitY=0.5;exitPerimeter=0;fontStyle=1;strokeColor=#003366;strokeWidth=1;html=1;rounded=0;" edge="1" parent="Yxb51bE3aqmOWf9K0Pek-1" source="-C2fDPN5Bqkar5Dweoa7-2" target="-C2fDPN5Bqkar5Dweoa7-13">
          <mxGeometry x="-100" y="250" width="100" height="100" as="geometry">
            <mxPoint x="-100" y="350" as="sourcePoint" />
            <mxPoint y="250" as="targetPoint" />
          </mxGeometry>
        </mxCell>
        <mxCell id="-C2fDPN5Bqkar5Dweoa7-15" value="" style="edgeStyle=elbowEdgeStyle;elbow=horizontal;fontStyle=1;strokeColor=#003366;strokeWidth=1;html=1;rounded=0;" edge="1" parent="Yxb51bE3aqmOWf9K0Pek-1" source="-C2fDPN5Bqkar5Dweoa7-2" target="-C2fDPN5Bqkar5Dweoa7-11">
          <mxGeometry x="-100" y="250" width="100" height="100" as="geometry">
            <mxPoint x="-100" y="350" as="sourcePoint" />
            <mxPoint y="250" as="targetPoint" />
          </mxGeometry>
        </mxCell>
        <mxCell id="-C2fDPN5Bqkar5Dweoa7-16" value="material&#xa;balance" style="shape=mxgraph.flowchart.predefined_process;strokeWidth=2;gradientColor=none;gradientDirection=north;fontStyle=0;html=1;" vertex="1" parent="Yxb51bE3aqmOWf9K0Pek-1">
          <mxGeometry x="380" y="885" width="190" height="90" as="geometry" />
        </mxCell>
        <mxCell id="-C2fDPN5Bqkar5Dweoa7-17" value="" style="edgeStyle=elbowEdgeStyle;elbow=horizontal;exitX=0.905;exitY=0.5;exitPerimeter=0;fontStyle=1;strokeColor=#003366;strokeWidth=1;html=1;rounded=0;" edge="1" parent="Yxb51bE3aqmOWf9K0Pek-1" source="-C2fDPN5Bqkar5Dweoa7-11" target="-C2fDPN5Bqkar5Dweoa7-16">
          <mxGeometry x="-100" y="250" width="100" height="100" as="geometry">
            <mxPoint x="-100" y="350" as="sourcePoint" />
            <mxPoint y="250" as="targetPoint" />
          </mxGeometry>
        </mxCell>
        <mxCell id="-C2fDPN5Bqkar5Dweoa7-18" value="organize &#xa;workforce" style="shape=mxgraph.flowchart.manual_input;strokeWidth=2;gradientColor=none;gradientDirection=north;fontStyle=0;html=1;" vertex="1" parent="Yxb51bE3aqmOWf9K0Pek-1">
          <mxGeometry x="142" y="1030" width="158" height="80" as="geometry" />
        </mxCell>
        <mxCell id="-C2fDPN5Bqkar5Dweoa7-19" value="" style="edgeStyle=elbowEdgeStyle;elbow=horizontal;entryX=0.5;entryY=0.195;entryPerimeter=0;fontStyle=1;strokeColor=#003366;strokeWidth=1;html=1;rounded=0;" edge="1" parent="Yxb51bE3aqmOWf9K0Pek-1" source="-C2fDPN5Bqkar5Dweoa7-11" target="-C2fDPN5Bqkar5Dweoa7-18">
          <mxGeometry x="-100" y="250" width="100" height="100" as="geometry">
            <mxPoint x="-100" y="350" as="sourcePoint" />
            <mxPoint y="250" as="targetPoint" />
          </mxGeometry>
        </mxCell>
        <mxCell id="-C2fDPN5Bqkar5Dweoa7-20" value="create Gantt&#xa;diagram" style="shape=mxgraph.flowchart.document;strokeWidth=2;gradientColor=none;gradientDirection=north;fontStyle=0;html=1;" vertex="1" parent="Yxb51bE3aqmOWf9K0Pek-1">
          <mxGeometry x="140.5" y="1170" width="159" height="90" as="geometry" />
        </mxCell>
        <mxCell id="-C2fDPN5Bqkar5Dweoa7-21" value="" style="edgeStyle=elbowEdgeStyle;elbow=horizontal;exitX=0.5;exitY=1;exitPerimeter=0;fontStyle=1;strokeColor=#003366;strokeWidth=1;html=1;rounded=0;" edge="1" parent="Yxb51bE3aqmOWf9K0Pek-1" source="-C2fDPN5Bqkar5Dweoa7-18" target="-C2fDPN5Bqkar5Dweoa7-20">
          <mxGeometry x="-100" y="250" width="100" height="100" as="geometry">
            <mxPoint x="-100" y="350" as="sourcePoint" />
            <mxPoint y="250" as="targetPoint" />
          </mxGeometry>
        </mxCell>
        <mxCell id="-C2fDPN5Bqkar5Dweoa7-22" value="late&#xa;project&#xa;changes?" style="shape=mxgraph.flowchart.decision;strokeWidth=2;gradientColor=none;gradientDirection=north;fontStyle=0;html=1;" vertex="1" parent="Yxb51bE3aqmOWf9K0Pek-1">
          <mxGeometry x="161.5" y="1330" width="119" height="78.5" as="geometry" />
        </mxCell>
        <mxCell id="-C2fDPN5Bqkar5Dweoa7-23" value="" style="edgeStyle=elbowEdgeStyle;elbow=horizontal;exitX=0.5;exitY=0.9;exitPerimeter=0;fontStyle=1;strokeColor=#003366;strokeWidth=1;html=1;rounded=0;" edge="1" parent="Yxb51bE3aqmOWf9K0Pek-1" source="-C2fDPN5Bqkar5Dweoa7-20" target="-C2fDPN5Bqkar5Dweoa7-22">
          <mxGeometry x="-100" y="250" width="100" height="100" as="geometry">
            <mxPoint x="-100" y="350" as="sourcePoint" />
            <mxPoint y="250" as="targetPoint" />
          </mxGeometry>
        </mxCell>
        <mxCell id="-C2fDPN5Bqkar5Dweoa7-24" value="" style="edgeStyle=elbowEdgeStyle;elbow=horizontal;exitX=0;exitY=0.5;exitPerimeter=0;entryX=0;entryY=0.5;entryPerimeter=0;fontStyle=1;strokeColor=#003366;strokeWidth=1;html=1;rounded=0;" edge="1" parent="Yxb51bE3aqmOWf9K0Pek-1" source="-C2fDPN5Bqkar5Dweoa7-26" target="-C2fDPN5Bqkar5Dweoa7-4">
          <mxGeometry x="-100" y="250" width="100" height="100" as="geometry">
            <mxPoint x="-100" y="350" as="sourcePoint" />
            <mxPoint y="250" as="targetPoint" />
            <Array as="points">
              <mxPoint x="60" y="1100" />
            </Array>
          </mxGeometry>
        </mxCell>
        <mxCell id="-C2fDPN5Bqkar5Dweoa7-25" value="yes" style="text;fontStyle=0;html=1;strokeColor=none;gradientColor=none;fillColor=none;strokeWidth=2;" vertex="1" parent="Yxb51bE3aqmOWf9K0Pek-1">
          <mxGeometry x="180" y="1408.5" width="40" height="26" as="geometry" />
        </mxCell>
        <mxCell id="-C2fDPN5Bqkar5Dweoa7-26" value="investor&#xa;disapproves&#xa; investment?" style="shape=mxgraph.flowchart.decision;strokeWidth=2;gradientColor=none;gradientDirection=north;fontStyle=0;html=1;" vertex="1" parent="Yxb51bE3aqmOWf9K0Pek-1">
          <mxGeometry x="155" y="1460" width="130" height="100" as="geometry" />
        </mxCell>
        <mxCell id="-C2fDPN5Bqkar5Dweoa7-27" value="agreement?" style="shape=mxgraph.flowchart.decision;strokeWidth=2;gradientColor=none;gradientDirection=north;fontStyle=0;html=1;" vertex="1" parent="Yxb51bE3aqmOWf9K0Pek-1">
          <mxGeometry x="410" y="1460" width="130" height="100" as="geometry" />
        </mxCell>
        <mxCell id="-C2fDPN5Bqkar5Dweoa7-28" value="" style="edgeStyle=elbowEdgeStyle;elbow=horizontal;exitX=0.5;exitY=1;exitPerimeter=0;fontStyle=1;strokeColor=#003366;strokeWidth=1;html=1;rounded=0;" edge="1" parent="Yxb51bE3aqmOWf9K0Pek-1" source="-C2fDPN5Bqkar5Dweoa7-22" target="-C2fDPN5Bqkar5Dweoa7-26">
          <mxGeometry x="-100" y="250" width="100" height="100" as="geometry">
            <mxPoint x="-100" y="350" as="sourcePoint" />
            <mxPoint y="250" as="targetPoint" />
          </mxGeometry>
        </mxCell>
        <mxCell id="-C2fDPN5Bqkar5Dweoa7-29" value="" style="edgeStyle=elbowEdgeStyle;elbow=horizontal;exitX=1;exitY=0.5;exitPerimeter=0;entryX=0;entryY=0.5;entryPerimeter=0;fontStyle=1;strokeColor=#003366;strokeWidth=1;html=1;rounded=0;" edge="1" parent="Yxb51bE3aqmOWf9K0Pek-1" source="-C2fDPN5Bqkar5Dweoa7-26" target="-C2fDPN5Bqkar5Dweoa7-27">
          <mxGeometry x="-100" y="250" width="100" height="100" as="geometry">
            <mxPoint x="-100" y="350" as="sourcePoint" />
            <mxPoint y="250" as="targetPoint" />
          </mxGeometry>
        </mxCell>
        <mxCell id="-C2fDPN5Bqkar5Dweoa7-30" value="terminate&#xa;contract&#xa;" style="shape=mxgraph.flowchart.merge_or_storage;strokeWidth=2;gradientColor=none;gradientDirection=north;fontStyle=0;html=1;" vertex="1" parent="Yxb51bE3aqmOWf9K0Pek-1">
          <mxGeometry x="660" y="1550" width="130" height="80.5" as="geometry" />
        </mxCell>
        <mxCell id="-C2fDPN5Bqkar5Dweoa7-31" value="" style="edgeStyle=elbowEdgeStyle;elbow=vertical;exitX=1;exitY=0.5;exitPerimeter=0;entryX=0.5;entryY=0;entryPerimeter=0;fontStyle=1;strokeColor=#003366;strokeWidth=1;html=1;rounded=0;" edge="1" parent="Yxb51bE3aqmOWf9K0Pek-1" source="-C2fDPN5Bqkar5Dweoa7-27" target="-C2fDPN5Bqkar5Dweoa7-30">
          <mxGeometry x="-100" y="250" width="100" height="100" as="geometry">
            <mxPoint x="-100" y="350" as="sourcePoint" />
            <mxPoint y="250" as="targetPoint" />
            <Array as="points">
              <mxPoint x="640" y="1510" />
            </Array>
          </mxGeometry>
        </mxCell>
        <mxCell id="-C2fDPN5Bqkar5Dweoa7-32" value="create&#xa;status&#xa;report" style="shape=mxgraph.flowchart.data;strokeWidth=2;gradientColor=none;gradientDirection=north;fontStyle=0;html=1;" vertex="1" parent="Yxb51bE3aqmOWf9K0Pek-1">
          <mxGeometry x="140.5" y="1740" width="159" height="80" as="geometry" />
        </mxCell>
        <mxCell id="-C2fDPN5Bqkar5Dweoa7-33" value="" style="edgeStyle=elbowEdgeStyle;elbow=vertical;exitX=0.5;exitY=1;exitPerimeter=0;fontColor=#001933;fontStyle=1;strokeColor=#003366;strokeWidth=1;html=1;rounded=0;" edge="1" parent="Yxb51bE3aqmOWf9K0Pek-1" source="-C2fDPN5Bqkar5Dweoa7-26" target="-C2fDPN5Bqkar5Dweoa7-32">
          <mxGeometry x="-100" y="250" width="100" height="100" as="geometry">
            <mxPoint x="-100" y="350" as="sourcePoint" />
            <mxPoint y="250" as="targetPoint" />
          </mxGeometry>
        </mxCell>
        <mxCell id="-C2fDPN5Bqkar5Dweoa7-34" value="" style="edgeStyle=elbowEdgeStyle;elbow=vertical;exitX=0.5;exitY=1;exitPerimeter=0;entryX=0.5;entryY=0;entryPerimeter=0;fontStyle=1;strokeColor=#003366;strokeWidth=1;html=1;rounded=0;" edge="1" parent="Yxb51bE3aqmOWf9K0Pek-1" source="-C2fDPN5Bqkar5Dweoa7-27" target="-C2fDPN5Bqkar5Dweoa7-32">
          <mxGeometry x="-100" y="250" width="100" height="100" as="geometry">
            <mxPoint x="-100" y="350" as="sourcePoint" />
            <mxPoint y="250" as="targetPoint" />
          </mxGeometry>
        </mxCell>
        <mxCell id="-C2fDPN5Bqkar5Dweoa7-35" value="project&#xa;complete?" style="shape=mxgraph.flowchart.decision;strokeWidth=2;gradientColor=none;gradientDirection=north;fontStyle=0;html=1;" vertex="1" parent="Yxb51bE3aqmOWf9K0Pek-1">
          <mxGeometry x="171" y="1871.5" width="98" height="57" as="geometry" />
        </mxCell>
        <mxCell id="-C2fDPN5Bqkar5Dweoa7-36" value="create&#xa;final&#xa;report" style="shape=mxgraph.flowchart.data;strokeWidth=2;gradientColor=none;gradientDirection=north;fontStyle=0;html=1;" vertex="1" parent="Yxb51bE3aqmOWf9K0Pek-1">
          <mxGeometry x="140.5" y="1980" width="159" height="80" as="geometry" />
        </mxCell>
        <mxCell id="-C2fDPN5Bqkar5Dweoa7-37" value="issue&#xa;bill of works" style="shape=mxgraph.flowchart.predefined_process;strokeWidth=2;gradientColor=none;gradientDirection=north;fontStyle=0;html=1;" vertex="1" parent="Yxb51bE3aqmOWf9K0Pek-1">
          <mxGeometry x="460" y="1975" width="190" height="90" as="geometry" />
        </mxCell>
        <mxCell id="-C2fDPN5Bqkar5Dweoa7-38" value="end" style="shape=mxgraph.flowchart.terminator;strokeWidth=2;gradientColor=none;gradientDirection=north;fontStyle=0;html=1;" vertex="1" parent="Yxb51bE3aqmOWf9K0Pek-1">
          <mxGeometry x="160" y="2160" width="120" height="30" as="geometry" />
        </mxCell>
        <mxCell id="-C2fDPN5Bqkar5Dweoa7-39" value="" style="edgeStyle=elbowEdgeStyle;elbow=vertical;exitX=0.5;exitY=1;exitPerimeter=0;entryX=0.5;entryY=0;entryPerimeter=0;fontStyle=1;strokeColor=#003366;strokeWidth=1;html=1;rounded=0;" edge="1" parent="Yxb51bE3aqmOWf9K0Pek-1" source="-C2fDPN5Bqkar5Dweoa7-32" target="-C2fDPN5Bqkar5Dweoa7-35">
          <mxGeometry x="-100" y="250" width="100" height="100" as="geometry">
            <mxPoint x="-100" y="350" as="sourcePoint" />
            <mxPoint y="250" as="targetPoint" />
          </mxGeometry>
        </mxCell>
        <mxCell id="-C2fDPN5Bqkar5Dweoa7-40" value="" style="edgeStyle=elbowEdgeStyle;elbow=vertical;exitX=0.5;exitY=1;exitPerimeter=0;entryX=0.5;entryY=0;entryPerimeter=0;fontStyle=1;strokeColor=#003366;strokeWidth=1;html=1;rounded=0;" edge="1" parent="Yxb51bE3aqmOWf9K0Pek-1" source="-C2fDPN5Bqkar5Dweoa7-35" target="-C2fDPN5Bqkar5Dweoa7-36">
          <mxGeometry x="-100" y="250" width="100" height="100" as="geometry">
            <mxPoint x="-100" y="350" as="sourcePoint" />
            <mxPoint y="250" as="targetPoint" />
          </mxGeometry>
        </mxCell>
        <mxCell id="-C2fDPN5Bqkar5Dweoa7-41" value="" style="edgeStyle=elbowEdgeStyle;elbow=vertical;exitX=0.5;exitY=1;exitPerimeter=0;entryX=0.5;entryY=0;entryPerimeter=0;fontStyle=1;strokeColor=#003366;strokeWidth=1;html=1;rounded=0;" edge="1" parent="Yxb51bE3aqmOWf9K0Pek-1" source="-C2fDPN5Bqkar5Dweoa7-36" target="-C2fDPN5Bqkar5Dweoa7-38">
          <mxGeometry x="-100" y="250" width="100" height="100" as="geometry">
            <mxPoint x="-100" y="350" as="sourcePoint" />
            <mxPoint y="250" as="targetPoint" />
          </mxGeometry>
        </mxCell>
        <mxCell id="-C2fDPN5Bqkar5Dweoa7-42" value="" style="edgeStyle=elbowEdgeStyle;elbow=vertical;exitX=0.905;exitY=0.5;exitPerimeter=0;entryX=0;entryY=0.5;entryPerimeter=0;fontStyle=1;strokeColor=#003366;strokeWidth=1;html=1;rounded=0;" edge="1" parent="Yxb51bE3aqmOWf9K0Pek-1" source="-C2fDPN5Bqkar5Dweoa7-36" target="-C2fDPN5Bqkar5Dweoa7-37">
          <mxGeometry x="-100" y="250" width="100" height="100" as="geometry">
            <mxPoint x="-100" y="350" as="sourcePoint" />
            <mxPoint y="250" as="targetPoint" />
          </mxGeometry>
        </mxCell>
        <mxCell id="-C2fDPN5Bqkar5Dweoa7-43" value="" style="edgeStyle=elbowEdgeStyle;elbow=horizontal;exitX=1;exitY=0.5;exitPerimeter=0;entryX=0.905;entryY=0.5;entryPerimeter=0;fontStyle=1;strokeColor=#003366;strokeWidth=1;html=1;rounded=0;" edge="1" parent="Yxb51bE3aqmOWf9K0Pek-1" source="-C2fDPN5Bqkar5Dweoa7-22" target="-C2fDPN5Bqkar5Dweoa7-32">
          <mxGeometry x="-100" y="250" width="100" height="100" as="geometry">
            <mxPoint x="-100" y="350" as="sourcePoint" />
            <mxPoint y="250" as="targetPoint" />
            <Array as="points">
              <mxPoint x="850" y="1570" />
            </Array>
          </mxGeometry>
        </mxCell>
        <mxCell id="-C2fDPN5Bqkar5Dweoa7-44" value="no" style="text;fontStyle=0;html=1;strokeColor=none;gradientColor=none;fillColor=none;strokeWidth=2;" vertex="1" parent="Yxb51bE3aqmOWf9K0Pek-1">
          <mxGeometry x="280.5" y="1343.25" width="40" height="26" as="geometry" />
        </mxCell>
        <mxCell id="-C2fDPN5Bqkar5Dweoa7-45" value="yes" style="text;fontColor=#001933;fontStyle=0;html=1;strokeColor=none;gradientColor=none;fillColor=none;strokeWidth=2;" vertex="1" parent="Yxb51bE3aqmOWf9K0Pek-1">
          <mxGeometry x="285" y="1484" width="40" height="26" as="geometry" />
        </mxCell>
        <mxCell id="-C2fDPN5Bqkar5Dweoa7-46" value="no" style="text;fontColor=#001933;fontStyle=0;html=1;strokeColor=none;gradientColor=none;fillColor=none;strokeWidth=2;align=center;" vertex="1" parent="Yxb51bE3aqmOWf9K0Pek-1">
          <mxGeometry x="220" y="1560" width="40" height="26" as="geometry" />
        </mxCell>
        <mxCell id="-C2fDPN5Bqkar5Dweoa7-47" value="yes" style="text;fontColor=#001933;fontStyle=0;html=1;strokeColor=none;gradientColor=none;fillColor=none;strokeWidth=2;align=center;" vertex="1" parent="Yxb51bE3aqmOWf9K0Pek-1">
          <mxGeometry x="475" y="1560" width="40" height="26" as="geometry" />
        </mxCell>
        <mxCell id="-C2fDPN5Bqkar5Dweoa7-48" value="no" style="text;fontColor=#001933;fontStyle=0;html=1;strokeColor=none;gradientColor=none;fillColor=none;strokeWidth=2;" vertex="1" parent="Yxb51bE3aqmOWf9K0Pek-1">
          <mxGeometry x="540" y="1484" width="40" height="26" as="geometry" />
        </mxCell>
        <mxCell id="-C2fDPN5Bqkar5Dweoa7-49" value="iron out&#xa;obscurities &#xa;with investor" style="shape=mxgraph.flowchart.paper_tape;strokeWidth=2;gradientColor=none;gradientDirection=north;fontStyle=0;html=1;" vertex="1" parent="Yxb51bE3aqmOWf9K0Pek-1">
          <mxGeometry x="370" y="550" width="150" height="81" as="geometry" />
        </mxCell>
        <mxCell id="-C2fDPN5Bqkar5Dweoa7-50" value="" style="edgeStyle=elbowEdgeStyle;elbow=horizontal;exitX=0.5;exitY=0.09;exitPerimeter=0;entryX=0.905;entryY=0.5;entryPerimeter=0;fontStyle=1;strokeColor=#003366;strokeWidth=1;html=1;rounded=0;" edge="1" parent="Yxb51bE3aqmOWf9K0Pek-1" source="-C2fDPN5Bqkar5Dweoa7-49" target="-C2fDPN5Bqkar5Dweoa7-3">
          <mxGeometry x="-100" y="250" width="100" height="100" as="geometry">
            <mxPoint x="-100" y="350" as="sourcePoint" />
            <mxPoint y="250" as="targetPoint" />
            <Array as="points">
              <mxPoint x="445" y="550" />
            </Array>
          </mxGeometry>
        </mxCell>
        <mxCell id="-C2fDPN5Bqkar5Dweoa7-51" value="yes" style="text;fontStyle=0;html=1;strokeColor=none;gradientColor=none;fillColor=none;strokeWidth=2;align=center;" vertex="1" parent="Yxb51bE3aqmOWf9K0Pek-1">
          <mxGeometry x="221" y="1930" width="40" height="26" as="geometry" />
        </mxCell>
        <mxCell id="-C2fDPN5Bqkar5Dweoa7-52" value="" style="edgeStyle=elbowEdgeStyle;elbow=horizontal;exitX=0;exitY=0.5;exitPerimeter=0;entryX=0.095;entryY=0.5;entryPerimeter=0;fontStyle=1;strokeColor=#003366;strokeWidth=1;html=1;rounded=0;" edge="1" parent="Yxb51bE3aqmOWf9K0Pek-1" source="-C2fDPN5Bqkar5Dweoa7-35" target="-C2fDPN5Bqkar5Dweoa7-3">
          <mxGeometry x="-100" y="250" width="100" height="100" as="geometry">
            <mxPoint x="-100" y="350" as="sourcePoint" />
            <mxPoint y="250" as="targetPoint" />
            <Array as="points">
              <mxPoint x="20" y="1220" />
            </Array>
          </mxGeometry>
        </mxCell>
        <mxCell id="-C2fDPN5Bqkar5Dweoa7-53" value="no" style="text;fontStyle=0;html=1;strokeColor=none;gradientColor=none;fillColor=none;strokeWidth=2;" vertex="1" parent="Yxb51bE3aqmOWf9K0Pek-1">
          <mxGeometry x="135" y="1874" width="40" height="26" as="geometry" />
        </mxCell>
      </root>
    </mxGraphModel>
  </diagram>
</mxfile>
